#!OML:ASF H:\IndianDance\Patient Classification 1\Patient 1\Session 1\dancer.ASF
:FULLY-SPECIFIED
:DEGREES
1621
root 0.246213 14.7076 1.62965 203.385 -105.704 -200.432
lowerback 6.25695 5.80709 -0.902199
upperback -10.8557 8.29669 5.94632
thorax -16.9021 4.37522 5.57442
lowerneck -11.3646 16.8114 14.7473
upperneck -6.04511 20.1393 -3.84129
head 1.85365 9.55831 -2.31209
rclavicle 9.14409e-014 1.04958e-013
rhumerus -8.42444 17.4495 2.0405
rradius 29.2674
rwrist -3.47966
rhand -12.7869 12.0468
rfingers 7.12502
rthumb 13.2986 -17.5089
lclavicle 9.14409e-014 1.04958e-013
lhumerus 43.1233 38.308 2.73349
lradius 94.8469
lwrist 29.9757
lhand -42.223 21.6902
lfingers 7.12502
lthumb -15.11 -1028.88
rfemur -16.2614 -20.6074 20.9711
rtibia 51.8822
rfoot -22.4097 -21.6052
rtoes 1.30032
lfemur -20.2254 -5.4307 4.72207
ltibia 7.59027
lfoot -56.4002 16.4072
ltoes 52.7768
1622
root 0.220315 14.714 1.71041 203.84 -105.51 -200.917
lowerback 6.0102 5.88047 -0.380598
upperback -10.9681 8.45547 5.99733
thorax -16.8229 4.38447 5.32976
lowerneck -11.2337 16.825 14.7436
upperneck -5.85404 20.1833 -3.70268
head 1.88316 9.59202 -2.2657
rclavicle 2.94201e-014 2.38542e-014
rhumerus -8.2938 17.3994 1.94851
rradius 29.5416
rwrist -3.83119
rhand -12.9579 12.146
rfingers 7.12502
rthumb 13.1338 -17.4204
lclavicle 2.94201e-014 2.38542e-014
lhumerus 41.1919 37.6124 1.61954
lradius 97.0339
lwrist 28.8902
lhand -42.6551 20.8193
lfingers 7.12502
lthumb -15.5262 -1029.78
rfemur -16.3948 -20.2275 20.6631
rtibia 52.4491
rfoot -21.7804 -21.4032
rtoes 0.789207
lfemur -20.2369 -5.89229 4.82583
ltibia 7.89394
lfoot -57.2434 15.972
ltoes 52.9805
1623
root 0.196589 14.7209 1.78559 204.18 -105.353 -201.242
lowerback 5.7517 5.94299 0.0787007
upperback -11.0821 8.58555 6.02406
thorax -16.7385 4.38668 5.10089
lowerneck -11.1242 16.8332 14.7377
upperneck -5.69064 20.2154 -3.5629
head 1.90517 9.6184 -2.21967
rclavicle -8.38871e-014 -8.66701e-014
rhumerus -8.22864 17.3543 1.81981
rradius 29.7979
rwrist -4.16322
rhand -13.1469 12.2578
rfingers 7.12502
rthumb 12.9516 -17.3203
lclavicle -8.38871e-014 -8.66701e-014
lhumerus 39.1969 36.8176 0.498196
lradius 99.0708
lwrist 27.44
lhand -43.0854 19.966
lfingers 7.12502
lthumb -15.9406 -1030.67
rfemur -16.6563 -19.8876 20.3802
rtibia 53.0841
rfoot -21.1033 -21.1455
rtoes 0.518481
lfemur -20.2598 -6.38018 4.91097
ltibia 8.1579
lfoot -58.2917 15.7136
ltoes 53.186
1624
root 0.17532 14.7287 1.85399 204.35 -105.232 -201.358
lowerback 5.49244 5.99473 0.456724
upperback -11.193 8.68564 6.02272
thorax -16.6534 4.38345 4.89266
lowerneck -11.0026 16.8337 14.7572
upperneck -5.59736 20.2361 -3.47055
head 1.90882 9.63525 -2.19729
rclavicle -4.45278e-014 -3.10104e-014
rhumerus -8.24299 17.3204 1.65905
rradius 30.0365
rwrist -4.43379
rhand -13.3344 12.3993
rfingers 7.12502
rthumb 12.7708 -17.1901
lclavicle -4.45278e-014 -3.10104e-014
lhumerus 37.1554 35.9184 -0.608432
lradius 100.952
lwrist 25.6097
lhand -43.5295 19.2329
lfingers 7.12502
lthumb -16.3682 -1031.44
rfemur -17.0285 -19.5961 20.1193
rtibia 53.7569
rfoot -20.4133 -20.8409
rtoes 0.571658
lfemur -20.2714 -6.90717 4.95276
ltibia 8.36168
lfoot -59.5362 15.8014
ltoes 53.3013
1625
root 0.156885 14.7368 1.91499 204.282 -105.144 -201.207
lowerback 5.25239 6.03253 0.736602
upperback -11.2996 8.75129 5.98865
thorax -16.5811 4.3744 4.70753
lowerneck -10.886 16.8265 14.791
upperneck -5.55269 20.2436 -3.40546
head 1.90048 9.64281 -2.18861
rclavicle -6.36111e-015 -2.22639e-014
rhumerus -8.32694 17.3009 1.46022
rradius 30.2427
rwrist -4.60162
rhand -13.5144 12.5692
rfingers 7.12502
rthumb 12.5973 -17.031
lclavicle -6.36111e-015 -2.22639e-014
lhumerus 35.0718 34.9056 -1.69081
lradius 102.694
lwrist 23.4668
lhand -44.0144 18.6631
lfingers 7.12502
lthumb -16.8351 -1032.05
rfemur -17.5086 -19.3668 19.8681
rtibia 54.4856
rfoot -19.8194 -20.4384
rtoes 0.827653
lfemur -20.3419 -7.48164 4.94683
ltibia 8.6101
lfoot -60.9749 16.0711
ltoes 53.3671
1626
root 0.141317 14.7434 1.96814 203.949 -105.086 -200.778
lowerback 5.04895 6.05693 0.906893
upperback -11.393 8.78461 5.92655
thorax -16.5254 4.36235 4.55442
lowerneck -10.7855 16.8132 14.8262
upperneck -5.55593 20.2398 -3.37228
head 1.88165 9.64199 -2.19212
rclavicle -1.03368e-014 3.18055e-014
rhumerus -8.48106 17.2972 1.23434
rradius 30.4138
rwrist -4.65545
rhand -13.678 12.7736
rfingers 7.12502
rthumb 12.4396 -16.8362
lclavicle -1.03368e-014 3.18055e-014
lhumerus 32.9567 33.7784 -2.72163
lradius 104.317
lwrist 21.1101
lhand -44.5486 18.2321
lfingers 7.12502
lthumb -17.3492 -1032.52
rfemur -18.0687 -19.2048 19.626
rtibia 55.2289
rfoot -19.3659 -19.8698
rtoes 1.08634
lfemur -20.4872 -8.1015 4.91032
ltibia 8.90592
lfoot -62.544 16.3538
ltoes 53.4505
